# xmcd
#
# Track frame offsets: 
#        150
#        21382
#        40297
#        54724
#        68806
#        84852
#        99410
#        114367
#        136980
#        160796
#        181153
#        196580
#        207755
#
# Disc length: 2980 seconds
#
# Revision: 0
# Processed by: cddbd v1.5.2PL0 Copyright (c) Steve Scherf et al.
# Submitted via: ExactAudioCopy v0.99pb5
#
DISCID=a20ba20d
DTITLE=Jim Lauderdale - Patchwork River
DYEAR=2010
DGENRE=Bluegrass
TTITLE0=Patchwork River
TTITLE1=Jawbone
TTITLE2=Good Together
TTITLE3=Alligator Alley
TTITLE4=Louisville Roll
TTITLE5=Tall Eyes
TTITLE6=Turn to Stone
TTITLE7=El Dorado
TTITLE8=Up My Sleeve
TTITLE9=Far in the Far Away
TTITLE10=Between Your Heart and Mine
TTITLE11=Winnona
TTITLE12=My Lips Are Sealed
EXTD=
EXTT0=
EXTT1=
EXTT2=
EXTT3=
EXTT4=
EXTT5=
EXTT6=
EXTT7=
EXTT8=
EXTT9=
EXTT10=
EXTT11=
EXTT12=
PLAYORDER=
